HIERARCHY
ROOT hip
{
OFFSET -0.24 89.68 0.19
CHANNELS 6 Xposition Yposition Zposition Zrotation Xrotation Yrotation
JOINT abdomen
{
OFFSET 0 7.23 0
CHANNELS 6 Xposition Yposition Zposition Zrotation Xrotation Yrotation
JOINT chest
{
OFFSET 0 16.54 0
CHANNELS 6 Xposition Yposition Zposition Zrotation Xrotation Yrotation
JOINT neck
{
OFFSET 0 34.21 0
CHANNELS 6 Xposition Yposition Zposition Zrotation Xrotation Yrotation
JOINT head
{
OFFSET 0 6.29 0
CHANNELS 6 Xposition Yposition Zposition Zrotation Xrotation Yrotation
End Site
{
OFFSET 0 21.21 0
}
}
}
JOINT lCollar
{
OFFSET 4.06 26.61 -1.12
CHANNELS 6 Xposition Yposition Zposition Zrotation Xrotation Yrotation
JOINT lShldr
{
OFFSET 14.17 0 0
CHANNELS 6 Xposition Yposition Zposition Zrotation Xrotation Yrotation
JOINT lForeArm
{
OFFSET 26.12 0 0
CHANNELS 6 Xposition Yposition Zposition Zrotation Xrotation Yrotation
JOINT lHand
{
OFFSET 27.71 0 0
CHANNELS 6 Xposition Yposition Zposition Zrotation Xrotation Yrotation
JOINT lThumb1
{
OFFSET 2.29 -0.46 1.83
CHANNELS 6 Xposition Yposition Zposition Zrotation Xrotation Yrotation
JOINT lThumb2
{
OFFSET 5.29 0 0
CHANNELS 6 Xposition Yposition Zposition Zrotation Xrotation Yrotation
JOINT lThumb3
{
OFFSET 3.01 0 0
CHANNELS 6 Xposition Yposition Zposition Zrotation Xrotation Yrotation
End Site
{
OFFSET 2.62 0 0
}
}
}
}
JOINT lIndex1
{
OFFSET 9.37 0.29 2.59
CHANNELS 6 Xposition Yposition Zposition Zrotation Xrotation Yrotation
JOINT lIndex2
{
OFFSET 4.34 0 0
CHANNELS 6 Xposition Yposition Zposition Zrotation Xrotation Yrotation
JOINT lIndex3
{
OFFSET 2.16 0 0
CHANNELS 6 Xposition Yposition Zposition Zrotation Xrotation Yrotation
End Site
{
OFFSET 2.20 0 0
}
}
}
}
JOINT lMid1
{
OFFSET 9.47 0.83 0.29
CHANNELS 6 Xposition Yposition Zposition Zrotation Xrotation Yrotation
JOINT lMid2
{
OFFSET 4.77 0 0
CHANNELS 6 Xposition Yposition Zposition Zrotation Xrotation Yrotation
JOINT lMid3
{
OFFSET 2.87 0 0
CHANNELS 6 Xposition Yposition Zposition Zrotation Xrotation Yrotation
End Site
{
OFFSET 2.09 0 0
}
}
}
}
JOINT lRing1
{
OFFSET 8.65 1.01 -1.70
CHANNELS 6 Xposition Yposition Zposition Zrotation Xrotation Yrotation
JOINT lRing2
{
OFFSET 4.54 0 0
CHANNELS 6 Xposition Yposition Zposition Zrotation Xrotation Yrotation
JOINT lRing3
{
OFFSET 2.50 0 0
CHANNELS 6 Xposition Yposition Zposition Zrotation Xrotation Yrotation
End Site
{
OFFSET 2.20 0 0
}
}
}
}
JOINT lPinky1
{
OFFSET 7.69 0.66 -3.90
CHANNELS 6 Xposition Yposition Zposition Zrotation Xrotation Yrotation
JOINT lPinky2
{
OFFSET 3.21 0 0
CHANNELS 6 Xposition Yposition Zposition Zrotation Xrotation Yrotation
JOINT lPinky3
{
OFFSET 1.92 0 0
CHANNELS 6 Xposition Yposition Zposition Zrotation Xrotation Yrotation
End Site
{
OFFSET 1.78 0 0
}
}
}
}
}
}
}
}
JOINT rCollar
{
OFFSET -4.06 26.61 -1.12
CHANNELS 6 Xposition Yposition Zposition Zrotation Xrotation Yrotation
JOINT rShldr
{
OFFSET -14.17 0 0
CHANNELS 6 Xposition Yposition Zposition Zrotation Xrotation Yrotation
JOINT rForeArm
{
OFFSET -26.12 0 0
CHANNELS 6 Xposition Yposition Zposition Zrotation Xrotation Yrotation
JOINT rHand
{
OFFSET -27.71 0 0
CHANNELS 6 Xposition Yposition Zposition Zrotation Xrotation Yrotation
JOINT rThumb1
{
OFFSET -2.29 -0.46 1.83
CHANNELS 6 Xposition Yposition Zposition Zrotation Xrotation Yrotation
JOINT rThumb2
{
OFFSET -5.29 0 0
CHANNELS 6 Xposition Yposition Zposition Zrotation Xrotation Yrotation
JOINT rThumb3
{
OFFSET -3.01 0 0
CHANNELS 6 Xposition Yposition Zposition Zrotation Xrotation Yrotation
End Site
{
OFFSET -2.62 0 0
}
}
}
}
JOINT rIndex1
{
OFFSET -9.37 0.29 2.59
CHANNELS 6 Xposition Yposition Zposition Zrotation Xrotation Yrotation
JOINT rIndex2
{
OFFSET -4.34 0 0
CHANNELS 6 Xposition Yposition Zposition Zrotation Xrotation Yrotation
JOINT rIndex3
{
OFFSET -2.16 0 0
CHANNELS 6 Xposition Yposition Zposition Zrotation Xrotation Yrotation
End Site
{
OFFSET -2.20 0 0
}
}
}
}
JOINT rMid1
{
OFFSET -9.47 0.83 0.29
CHANNELS 6 Xposition Yposition Zposition Zrotation Xrotation Yrotation
JOINT rMid2
{
OFFSET -4.77 0 0
CHANNELS 6 Xposition Yposition Zposition Zrotation Xrotation Yrotation
JOINT rMid3
{
OFFSET -2.87 0 0
CHANNELS 6 Xposition Yposition Zposition Zrotation Xrotation Yrotation
End Site
{
OFFSET -2.09 0 0
}
}
}
}
JOINT rRing1
{
OFFSET -8.65 1.01 -1.70
CHANNELS 6 Xposition Yposition Zposition Zrotation Xrotation Yrotation
JOINT rRing2
{
OFFSET -4.54 0 0
CHANNELS 6 Xposition Yposition Zposition Zrotation Xrotation Yrotation
JOINT rRing3
{
OFFSET -2.50 0 0
CHANNELS 6 Xposition Yposition Zposition Zrotation Xrotation Yrotation
End Site
{
OFFSET -2.20 0 0
}
}
}
}
JOINT rPinky1
{
OFFSET -7.69 0.66 -3.90
CHANNELS 6 Xposition Yposition Zposition Zrotation Xrotation Yrotation
JOINT rPinky2
{
OFFSET -3.21 0 0
CHANNELS 6 Xposition Yposition Zposition Zrotation Xrotation Yrotation
JOINT rPinky3
{
OFFSET -1.92 0 0
CHANNELS 6 Xposition Yposition Zposition Zrotation Xrotation Yrotation
End Site
{
OFFSET -1.78 0 0
}
}
}
}
}
}
}
}
}
}
JOINT lThigh
{
OFFSET 8.73 -0 0
CHANNELS 6 Xposition Yposition Zposition Zrotation Xrotation Yrotation
JOINT lShin
{
OFFSET 0 -46.66 0
CHANNELS 6 Xposition Yposition Zposition Zrotation Xrotation Yrotation
JOINT lFoot
{
OFFSET 0 -40.14 0
CHANNELS 6 Xposition Yposition Zposition Zrotation Xrotation Yrotation
JOINT lToes
{
OFFSET 0 -8.88 14.22
CHANNELS 6 Xposition Yposition Zposition Zrotation Xrotation Yrotation
End Site
{
OFFSET 0 0 6.29
}
}
}
}
}
JOINT rThigh
{
OFFSET -8.73 0 -0
CHANNELS 6 Xposition Yposition Zposition Zrotation Xrotation Yrotation
JOINT rShin
{
OFFSET 0 -46.66 0
CHANNELS 6 Xposition Yposition Zposition Zrotation Xrotation Yrotation
JOINT rFoot
{
OFFSET 0 -40.14 0
CHANNELS 6 Xposition Yposition Zposition Zrotation Xrotation Yrotation
JOINT rToes
{
OFFSET 0 -8.88 14.22
CHANNELS 6 Xposition Yposition Zposition Zrotation Xrotation Yrotation
End Site
{
OFFSET 0 0 6.29
}
}
}
}
}
}
MOTION
Frames: 5
Frame Time: 0.03
-1.25 89.35 0.19 -1.96 -4.00 -42.70 0 7.23 0 -0.28 7.28 1.00 0 16.54 0 -0.56 16.42 1.82 0 34.21 0 6.08 36.51 -22.35 0 6.29 0 4.59 -33.59 -31.20 4.06 26.61 -1.12 -0.64 -3.86 1.38 14.17 0 0 -66.02 -5.48 6.49 26.12 0 0 -3.51 2.74 -56.33 27.71 0 0 16.74 -0.72 -4.19 2.29 -0.46 1.83 61.03 79.00 -91.69 5.29 0 0 -8.54 2.60 3.54 3.01 0 0 12.48 -0 0 9.37 0.29 2.59 -32.29 3.08 0.03 4.34 0 0 -50.73 -1.28 1.20 2.16 0 0 -2.16 0 0 9.47 0.83 0.29 -41.05 -9.06 6.74 4.77 0 0 -56.25 -1.66 2.47 2.87 0 0 3.95 0.07 0.39 8.65 1.01 -1.70 -56.46 -9.54 5.97 4.54 0 0 -66.80 1.66 -1.77 2.50 0 0 6.76 0 0 7.69 0.66 -3.90 -61.31 -17.15 -0.78 3.21 0 0 -73.02 -3.98 9.83 1.92 0 0 4.41 0 0 -4.06 26.61 -1.12 2.41 -2.80 4.31 -14.17 0 0 67.80 -12.71 -23.73 -26.12 0 0 4.23 -0.48 60.89 -27.71 0 0 -10.87 2.33 6.38 -2.29 -0.46 1.83 -24.55 71.98 62.67 -5.29 0 0 20.39 2.37 -4.56 -3.01 0 0 -12.48 -0 0 -9.37 0.29 2.59 40.80 -1.15 -6.48 -4.34 0 0 60.71 -2.02 -1.83 -2.16 0 0 2.16 0 0 -9.47 0.83 0.29 37.17 -6.04 -1.11 -4.77 0 0 82.47 -3.81 -3.70 -2.87 0 0 -3.95 0.07 -0.39 -8.65 1.01 -1.70 45.24 -1.15 0.50 -4.54 0 0 89.49 3.71 2.93 -2.50 0 0 -6.76 0 0 -7.69 0.66 -3.90 46.20 -14.05 4.80 -3.21 0 0 93.01 -4.43 -8.86 -1.92 0 0 -4.41 0 0 8.73 -0 0 12.44 -23.57 18.54 0 -46.66 0 10.07 38.87 -16.63 0 -40.14 0 -10.12 -11.29 6.53 0 -8.88 14.22 0 0 0 -8.73 0 -0 -15.64 2.58 -22.88 0 -46.66 0 -12.21 34.23 23.93 0 -40.14 0 9.52 -32.08 -5.29 0 -8.88 14.22 0 0 0 
-1.29 89.51 0.19 -2.04 -3.89 -46.54 0 7.23 0 -0.16 7.44 0.08 0 16.54 0 -0.21 16.74 -0.04 0 34.21 0 5.19 35.90 -21.39 0 6.29 0 5.65 -33.69 -31.07 4.06 26.61 -1.12 -0.87 -3.99 0.37 14.17 0 0 -65.96 -6.21 8.17 26.12 0 0 -3.55 2.56 -57.42 27.71 0 0 16.70 -0.92 -4.67 2.29 -0.46 1.83 60.05 78.82 -90.33 5.29 0 0 -8.66 2.41 3.55 3.01 0 0 12.48 -0 0 9.37 0.29 2.59 -30.19 2.90 -0.85 4.34 0 0 -48.21 -1.23 1.31 2.16 0 0 -2.16 0 0 9.47 0.83 0.29 -38.91 -8.87 7.12 4.77 0 0 -53.75 -1.55 2.44 2.87 0 0 3.95 0.07 0.39 8.65 1.01 -1.70 -54.63 -9.34 6.74 4.54 0 0 -64.39 1.58 -1.78 2.50 0 0 6.76 0 0 7.69 0.66 -3.90 -58.89 -17.27 0.85 3.21 0 0 -70.68 -3.58 9.48 1.92 0 0 4.41 0 0 -4.06 26.61 -1.12 2.25 -2.67 2.96 -14.17 0 0 67.80 -12.33 -24.03 -26.12 0 0 4.08 -0.03 61.70 -27.71 0 0 -12.09 2.33 6.51 -2.29 -0.46 1.83 -24.34 72.12 62.55 -5.29 0 0 20.39 2.42 -4.55 -3.01 0 0 -12.48 -0 0 -9.37 0.29 2.59 42.62 -0.60 -6.63 -4.34 0 0 61.68 -2.05 -1.79 -2.16 0 0 2.16 0 0 -9.47 0.83 0.29 38.35 -6.06 -1.08 -4.77 0 0 83.89 -3.90 -3.69 -2.87 0 0 -3.95 0.07 -0.39 -8.65 1.01 -1.70 46.47 -1.27 0.60 -4.54 0 0 90.92 3.78 2.91 -2.50 0 0 -6.76 0 0 -7.69 0.66 -3.90 47.29 -14.24 4.87 -3.21 0 0 93.99 -4.60 -8.92 -1.92 0 0 -4.41 0 0 8.73 -0 0 13.42 -22.21 19.46 0 -46.66 0 9.26 38.66 -13.55 0 -40.14 0 -10.92 -11.46 6.44 0 -8.88 14.22 0 0 0 -8.73 0 -0 -16.06 0.91 -23.05 0 -46.66 0 -13.13 34.37 25.52 0 -40.14 0 9.80 -31.44 -5.11 0 -8.88 14.22 0 0 0 
-1.32 89.66 0.19 -2.07 -3.81 -50.36 0 7.23 0 -0.06 7.56 -0.82 0 16.54 0 0.08 16.97 -1.88 0 34.21 0 4.02 35.23 -20.19 0 6.29 0 6.64 -33.65 -30.84 4.06 26.61 -1.12 -1.07 -4.10 -0.53 14.17 0 0 -65.71 -6.93 9.81 26.12 0 0 -3.64 2.21 -58.44 27.71 0 0 16.53 -0.98 -4.34 2.29 -0.46 1.83 59.28 78.48 -89.25 5.29 0 0 -8.84 2.22 3.56 3.01 0 0 12.48 -0 0 9.37 0.29 2.59 -27.75 2.61 -1.75 4.34 0 0 -45.33 -1.16 1.44 2.16 0 0 -2.16 0 0 9.47 0.83 0.29 -36.41 -8.61 7.52 4.77 0 0 -50.94 -1.43 2.40 2.87 0 0 3.95 0.07 0.39 8.65 1.01 -1.70 -52.37 -9.00 7.59 4.54 0 0 -61.66 1.50 -1.78 2.50 0 0 6.76 0 0 7.69 0.66 -3.90 -55.98 -17.30 2.67 3.21 0 0 -67.97 -3.14 9.05 1.92 0 0 4.41 0 0 -4.06 26.61 -1.12 2.01 -2.57 1.90 -14.17 0 0 67.66 -12.17 -24.75 -26.12 0 0 3.93 0.29 62.52 -27.71 0 0 -13.31 2.25 6.69 -2.29 -0.46 1.83 -24.74 72.44 63.23 -5.29 0 0 20.42 2.37 -4.68 -3.01 0 0 -12.48 -0 0 -9.37 0.29 2.59 44.31 0 -6.87 -4.34 0 0 62.58 -2.08 -1.76 -2.16 0 0 2.16 0 0 -9.47 0.83 0.29 39.38 -6.09 -1.06 -4.77 0 0 85.24 -3.99 -3.68 -2.87 0 0 -3.95 0.07 -0.39 -8.65 1.01 -1.70 47.45 -1.37 0.69 -4.54 0 0 92.21 3.85 2.89 -2.50 0 0 -6.76 0 0 -7.69 0.66 -3.90 48.27 -14.41 4.95 -3.21 0 0 95.50 -4.84 -9.05 -1.92 0 0 -4.41 0 0 8.73 -0 0 14.20 -20.80 20.23 0 -46.66 0 8.45 38.42 -10.40 0 -40.14 0 -11.75 -11.57 6.34 0 -8.88 14.22 0 0 -0 -8.73 0 -0 -16.40 -0.84 -23.14 0 -46.66 0 -14.07 34.60 26.84 0 -40.14 0 10.18 -30.72 -4.92 0 -8.88 14.22 0 0 0 
-1.35 89.78 0.24 -2.04 -3.81 -54.12 0 7.23 0 -0.06 7.64 -1.51 0 16.54 0 0.22 17.15 -3.28 0 34.21 0 3.07 34.43 -19.22 0 6.29 0 7.47 -33.52 -30.63 4.06 26.61 -1.12 -1.26 -4.23 -1.57 14.17 0 0 -65.11 -7.46 11.13 26.12 0 0 -3.83 1.78 -59.33 27.71 0 0 16.99 -1.20 -3.47 2.29 -0.46 1.83 58.49 78.11 -88.20 5.29 0 0 -9.04 2.05 3.53 3.01 0 0 12.48 -0 0 9.37 0.29 2.59 -25.03 2.22 -2.60 4.34 0 0 -42.24 -1.08 1.57 2.16 0 0 -2.16 0 0 9.47 0.83 0.29 -33.60 -8.28 7.92 4.77 0 0 -47.86 -1.30 2.34 2.87 0 0 3.95 0.07 0.39 8.65 1.01 -1.70 -49.87 -8.51 8.44 4.54 0 0 -58.63 1.41 -1.78 2.50 0 0 6.76 0 0 7.69 0.66 -3.90 -52.74 -17.23 4.55 3.21 0 0 -64.99 -2.68 8.55 1.92 0 0 4.41 0 0 -4.06 26.61 -1.12 2.01 -2.42 0.36 -14.17 0 0 67.19 -12.09 -25.41 -26.12 0 0 3.92 0.46 63.32 -27.71 0 0 -14.23 2.02 6.92 -2.29 -0.46 1.83 -24.00 72.42 62.37 -5.29 0 0 20.46 2.48 -4.52 -3.01 0 0 -12.48 -0 0 -9.37 0.29 2.59 46.06 0.69 -7.12 -4.34 0 0 63.43 -2.10 -1.73 -2.16 0 0 2.16 0 0 -9.47 0.83 0.29 40.41 -6.11 -1.04 -4.77 0 0 86.57 -4.08 -3.67 -2.87 0 0 -3.95 0.07 -0.39 -8.65 1.01 -1.70 48.54 -1.48 0.78 -4.54 0 0 93.58 3.92 2.87 -2.50 0 0 -6.76 0 0 -7.69 0.66 -3.90 49.41 -14.53 5.14 -3.21 0 0 96.79 -5.05 -9.14 -1.92 0 0 -4.41 0 0 8.73 -0 0 14.74 -19.38 20.84 0 -46.66 0 7.63 38.15 -7.18 0 -40.14 0 -12.51 -11.63 6.26 0 -8.88 14.22 0 0 0 -8.73 0 -0 -16.74 -2.63 -23.21 0 -46.66 0 -15.05 34.90 27.94 0 -40.14 0 10.56 -29.98 -4.75 0 -8.88 14.22 0 0 -0 
-1.41 89.90 0.29 -2.12 -3.89 -57.67 0 7.23 0 -0.14 7.70 -2.03 0 16.54 0 0.16 17.27 -4.29 0 34.21 0 2.27 33.76 -18.34 0 6.29 0 8.28 -33.27 -30.52 4.06 26.61 -1.12 -1.31 -4.35 -2.46 14.17 0 0 -64.37 -7.94 11.99 26.12 0 0 -3.90 1.35 -60.14 27.71 0 0 18.39 -1.47 -3.48 2.29 -0.46 1.83 57.48 77.50 -86.94 5.29 0 0 -9.25 1.87 3.51 3.01 0 0 12.48 -0 0 9.37 0.29 2.59 -22.01 1.77 -3.49 4.34 0 0 -38.97 -0.98 1.70 2.16 0 0 -2.16 0 0 9.47 0.83 0.29 -30.56 -7.88 8.27 4.77 0 0 -44.61 -1.17 2.28 2.87 0 0 3.95 0.07 0.39 8.65 1.01 -1.70 -47.02 -7.91 9.33 4.54 0 0 -55.51 1.32 -1.77 2.50 0 0 6.76 0 0 7.69 0.66 -3.90 -49.27 -17.07 6.48 3.21 0 0 -61.90 -2.22 8.02 1.92 0 0 4.41 0 0 -4.06 26.61 -1.12 2.21 -2.23 -1.63 -14.17 0 0 66.22 -11.52 -25.72 -26.12 0 0 4.03 1.19 63.51 -27.71 0 0 -14.75 1.97 6.86 -2.29 -0.46 1.83 -23.09 72.38 61.24 -5.29 0 0 20.48 2.63 -4.35 -3.01 0 0 -12.48 -0 0 -9.37 0.29 2.59 47.65 1.43 -7.39 -4.34 0 0 64.23 -2.13 -1.69 -2.16 0 0 2.16 0 0 -9.47 0.83 0.29 41.42 -6.12 -1.00 -4.77 0 0 87.76 -4.15 -3.66 -2.87 0 0 -3.95 0.07 -0.39 -8.65 1.01 -1.70 49.53 -1.59 0.85 -4.54 0 0 94.80 3.98 2.85 -2.50 0 0 -6.76 0 0 -7.69 0.66 -3.90 50.41 -14.69 5.24 -3.21 0 0 98.16 -5.27 -9.24 -1.92 0 0 -4.41 0 0 8.73 -0 0 15.15 -17.86 21.37 0 -46.66 0 6.85 37.87 -4.15 0 -40.14 0 -13.18 -11.68 6.18 0 -8.88 14.22 0 0 -0 -8.73 0 -0 -16.84 -4.18 -23.07 0 -46.66 0 -16.07 35.11 28.59 0 -40.14 0 11.07 -29.23 -4.58 0 -8.88 14.22 0 0 0 
